<svg width="512" height="512" viewBox="0 0 512 512" fill="none" xmlns="http://www.w3.org/2000/svg">
<g clip-path="url(#clip0_307_3)">
<path d="M256 512C397.385 512 512 397.385 512 256C512 114.615 397.385 0 256 0C114.615 0 0 114.615 0 256C0 397.385 114.615 512 256 512Z" fill="#393A59"/>
<path d="M470 214.52C469.996 251.771 460.294 288.379 441.848 320.743C423.403 353.106 396.85 380.11 364.801 399.098C332.753 418.086 296.313 428.403 259.068 429.035C221.822 429.666 185.054 420.59 152.38 402.7C147.46 400 142.667 397.1 138 394C108.202 374.482 83.7264 347.858 66.7778 316.527C49.8292 285.196 40.9397 250.141 40.9099 214.52C40.9099 96 137 0 255.43 0C373.86 0 470 96 470 214.52Z" fill="#6A6577"/>
<path d="M186.16 233.58C177.743 235.139 170.198 239.753 164.976 246.537C159.755 253.32 157.224 261.794 157.87 270.33C157.994 271.934 158.225 273.527 158.56 275.1C158.03 275.04 157.5 275 156.96 274.96H155.6C148.212 274.772 140.905 276.53 134.411 280.058C127.917 283.586 122.465 288.759 118.602 295.06C114.739 301.36 112.601 308.566 112.402 315.953C112.204 323.341 113.951 330.651 117.47 337.15L117.01 337.38C113.899 330.549 109.021 324.673 102.88 320.358C96.7391 316.042 89.5573 313.445 82.0765 312.833C74.5958 312.222 67.0874 313.618 60.3269 316.879C53.5664 320.139 47.7988 325.145 43.62 331.38C43.33 331.83 43.04 332.28 42.76 332.74C38.6287 327.886 33.241 324.263 27.1873 322.268C21.1336 320.273 14.6476 319.983 8.43998 321.43C7.19331 316.697 6.07998 311.913 5.09998 307.08L25.39 269.37L33.05 277.15C37.652 281.817 43.6115 284.911 50.0769 285.988C56.5423 287.066 63.1829 286.072 69.05 283.15L59 263L65.16 264.4C70.2012 265.553 75.4861 264.926 80.1177 262.626C84.7493 260.325 88.4423 256.493 90.57 251.78L93.17 246.01L103.17 266.21C107.503 264.077 111.28 260.964 114.202 257.117C117.123 253.271 119.108 248.797 120 244.05C120.638 240.682 120.705 237.231 120.2 233.84L118.62 223L123.38 223.74L186.16 233.58Z" fill="#393A59"/>
<path d="M472.89 320.26C472.748 320.863 472.423 321.408 471.959 321.818C471.495 322.229 470.915 322.486 470.299 322.554C469.683 322.622 469.061 322.498 468.519 322.198C467.976 321.898 467.54 321.438 467.27 320.88C464.458 314.859 459.976 309.773 454.356 306.227C448.736 302.681 442.215 300.825 435.57 300.88C433.963 300.887 432.359 301.011 430.77 301.25C430.863 300.723 430.943 300.193 431.01 299.66C431.06 299.2 431.12 298.75 431.16 298.3C431.688 292.62 431.06 286.891 429.314 281.46C427.568 276.029 424.74 271.008 421 266.7C418.484 263.801 415.58 261.264 412.37 259.16C406.41 255.24 399.554 252.893 392.442 252.341C385.33 251.788 378.194 253.047 371.7 256L371.5 255.52C378.53 252.888 384.729 248.425 389.457 242.594C394.184 236.763 397.268 229.774 398.389 222.352C399.511 214.929 398.629 207.342 395.836 200.374C393.042 193.407 388.438 187.312 382.5 182.72C382.08 182.4 381.65 182.08 381.21 181.77C387.197 177.313 391.589 171.045 393.732 163.895C395.876 156.746 395.658 149.096 393.11 142.08C392.908 141.496 392.891 140.864 393.062 140.27C393.233 139.676 393.583 139.15 394.065 138.762C394.546 138.375 395.136 138.146 395.752 138.106C396.369 138.066 396.983 138.218 397.51 138.54L442.09 166.54C442.487 166.79 442.82 167.13 443.061 167.532C443.303 167.933 443.447 168.387 443.482 168.854C443.517 169.322 443.442 169.791 443.263 170.225C443.084 170.658 442.805 171.044 442.45 171.35L437.25 175.81C432.705 179.712 429.382 184.842 427.681 190.586C425.98 196.33 425.973 202.442 427.66 208.19C427.778 208.592 427.978 208.965 428.249 209.284C428.519 209.604 428.853 209.864 429.23 210.046C429.607 210.229 430.018 210.331 430.436 210.345C430.855 210.36 431.272 210.286 431.66 210.13L443.73 205.13C444.253 204.919 444.825 204.86 445.38 204.959C445.935 205.058 446.451 205.312 446.868 205.691C447.286 206.07 447.588 206.558 447.741 207.101C447.893 207.644 447.889 208.219 447.73 208.76V208.76C446.237 213.712 446.504 219.028 448.486 223.806C450.467 228.583 454.041 232.528 458.6 234.97V234.97C459.096 235.24 459.506 235.645 459.782 236.137C460.059 236.63 460.19 237.191 460.162 237.755C460.134 238.319 459.947 238.864 459.623 239.326C459.299 239.789 458.851 240.151 458.33 240.37L446.26 245.37C445.868 245.532 445.515 245.775 445.224 246.084C444.933 246.392 444.711 246.759 444.572 247.16C444.433 247.56 444.381 247.986 444.418 248.408C444.456 248.831 444.583 249.24 444.79 249.61C447.664 254.863 451.993 259.174 457.259 262.025C462.524 264.876 468.501 266.145 474.47 265.68L481.31 265.16C481.776 265.126 482.244 265.201 482.677 265.379C483.109 265.558 483.493 265.835 483.799 266.189C484.105 266.542 484.325 266.963 484.439 267.416C484.554 267.869 484.561 268.343 484.46 268.8L484.29 269.55L472.89 320.26Z" fill="#393A59"/>
<path d="M211.2 32.54C211.763 32.7969 212.233 33.2215 212.545 33.7557C212.857 34.29 212.996 34.9076 212.944 35.5242C212.891 36.1407 212.649 36.7258 212.251 37.1995C211.853 37.6732 211.318 38.0122 210.72 38.17C204.27 39.7722 198.417 43.1945 193.857 48.0293C189.297 52.864 186.222 58.9075 185 65.44C184.695 67.0173 184.508 68.615 184.44 70.22C183.94 70.03 183.44 69.85 182.92 69.68L181.62 69.27C176.14 67.6588 170.39 67.1755 164.718 67.8493C159.046 68.523 153.57 70.3399 148.62 73.19C145.292 75.0955 142.244 77.451 139.56 80.19C137.704 82.1004 136.03 84.1794 134.56 86.4C131.357 91.2163 129.183 96.6424 128.174 102.338C127.166 108.034 127.345 113.877 128.7 119.5L128.19 119.6C126.95 112.205 123.759 105.274 118.947 99.5229C114.134 93.7719 107.875 89.4088 100.814 86.8837C93.7534 84.3586 86.1468 83.7628 78.779 85.1579C71.4111 86.5529 64.5489 89.8883 58.9 94.82L57.72 95.91C54.4956 89.1776 49.1868 83.664 42.5811 80.1874C35.9755 76.7107 28.425 75.4562 21.05 76.61C20.4376 76.6968 19.8133 76.5921 19.2627 76.3104C18.7121 76.0287 18.262 75.5837 17.9741 75.0363C17.6861 74.4889 17.5744 73.8658 17.6542 73.2525C17.7341 72.6392 18.0015 72.0655 18.42 71.61L54.5 33.25C54.8215 32.9085 55.2187 32.6471 55.6596 32.4869C56.1005 32.3267 56.5728 32.2721 57.0387 32.3276C57.5045 32.383 57.9508 32.5469 58.3418 32.8061C58.7328 33.0653 59.0575 33.4126 59.29 33.82L62.67 39.82C65.6307 45.0216 70.0294 49.2584 75.3384 52.0219C80.6473 54.7855 86.6409 55.9584 92.6 55.4C93.0204 55.3633 93.4284 55.2382 93.7973 55.033C94.1661 54.8279 94.4875 54.5471 94.7405 54.2093C94.9934 53.8714 95.1722 53.4839 95.2652 53.0722C95.3581 52.6605 95.3632 52.2338 95.28 51.82L92.68 39C92.5722 38.4469 92.6224 37.8745 92.8248 37.3486C93.0272 36.8226 93.3737 36.3643 93.8246 36.0262C94.2754 35.688 94.8124 35.4837 95.374 35.4366C95.9356 35.3896 96.4991 35.5016 97 35.76V35.76C101.574 38.1753 106.843 38.9333 111.912 37.9052C116.981 36.8771 121.538 34.1264 124.81 30.12V30.12C125.17 29.6843 125.646 29.3591 126.183 29.1819C126.719 29.0047 127.295 28.9828 127.844 29.1187C128.393 29.2546 128.892 29.5427 129.284 29.9498C129.676 30.357 129.945 30.8666 130.06 31.42L132.66 44.23C132.745 44.6452 132.916 45.0378 133.163 45.3819C133.411 45.726 133.728 46.0138 134.095 46.2264C134.461 46.439 134.869 46.5715 135.29 46.6152C135.712 46.6589 136.138 46.6128 136.54 46.48C142.24 44.6693 147.296 41.2536 151.104 36.6422C154.912 32.0309 157.31 26.4193 158.01 20.48L158.81 13.67C158.861 13.2016 159.022 12.7518 159.279 12.3572C159.537 11.9625 159.884 11.634 160.292 11.3983C160.7 11.1626 161.158 11.0264 161.628 11.0006C162.099 10.9749 162.569 11.0603 163 11.25L163.7 11.56L211.2 32.54Z" fill="#393A59"/>
<path d="M433 441C385.38 486.648 321.965 512.133 256 512.133C190.035 512.133 126.62 486.648 79 441C87.2287 420.113 101.373 402.081 119.699 389.114C138.024 376.148 159.735 368.81 182.17 368C183.55 367.94 184.95 367.9 186.35 367.9H325.64C327.04 367.9 328.44 367.9 329.82 368C352.256 368.808 373.969 376.145 392.297 389.112C410.625 402.079 424.771 420.112 433 441V441Z" fill="#282942"/>
<path d="M256 448.64C256 448.64 433.29 319.93 426.92 308.34C417.4 291.03 403.27 279.22 389.31 271.21C374.948 263.036 359.218 257.544 342.89 255L201.77 374.81L256 448.64Z" fill="#BC93FF"/>
<path d="M256 448.64C256 448.64 433.29 319.93 426.92 308.34C417.4 291.03 403.27 279.22 389.31 271.21C403.59 287 417.31 311.02 396.21 332.1C393.081 335.283 389.268 337.711 385.06 339.2C371.12 344.04 358.15 351.32 347.47 361.5L256 448.64Z" fill="#282942"/>
<path d="M256 448.64C256 448.64 78.7 319.93 85.07 308.34C94.59 291.03 108.72 279.22 122.68 271.21C137.039 263.037 152.765 257.545 169.09 255L256 448.64Z" fill="#BC93FF"/>
<path d="M402.66 149.7L353.83 178.5V237.09C353.83 243.565 356.402 249.775 360.979 254.354C365.556 258.933 371.765 261.507 378.24 261.51C384.717 261.51 390.928 258.937 395.508 254.358C400.087 249.778 402.66 243.567 402.66 237.09V149.7V149.7Z" fill="#CCCCCC"/>
<path d="M109.32 149.7L158.15 178.5V237.09C158.15 243.565 155.579 249.775 151.001 254.354C146.424 258.933 140.215 261.507 133.74 261.51C127.263 261.51 121.052 258.937 116.473 254.358C111.893 249.778 109.32 243.567 109.32 237.09V149.7V149.7Z" fill="#CCCCCC"/>
<path d="M310.22 308.2V366.45C310.22 380.831 304.508 394.623 294.34 404.793C284.172 414.963 270.381 420.677 256 420.68V420.68C248.879 420.68 241.828 419.277 235.249 416.552C228.67 413.826 222.692 409.832 217.657 404.796C212.622 399.76 208.629 393.782 205.904 387.202C203.18 380.623 201.779 373.571 201.78 366.45V308.2H310.22Z" fill="#CCCCCC"/>
<path d="M376.73 145.05V247.43C376.73 279.452 364.009 310.163 341.366 332.806C318.723 355.449 288.012 368.17 255.99 368.17C223.968 368.17 193.257 355.449 170.614 332.806C147.971 310.163 135.25 279.452 135.25 247.43V145.05C135.248 139.615 135.612 134.186 136.34 128.8C138.501 112.644 143.946 97.1019 152.34 83.13C173.41 47.9 338.58 47.9 359.64 83.13C368.033 97.1026 373.478 112.645 375.64 128.8C376.368 134.186 376.732 139.615 376.73 145.05V145.05Z" fill="#EDEDED"/>
<path d="M170.23 247.43V145.05C170.236 116.06 180.67 88.0403 199.626 66.1077C218.583 44.175 244.797 29.7935 273.48 25.59C256.328 23.0723 238.836 24.2787 222.192 29.1272C205.548 33.9757 190.144 42.3526 177.028 53.6877C163.912 65.0229 153.391 79.0504 146.182 94.8158C138.973 110.581 135.244 127.715 135.25 145.05V247.43C135.25 263.287 138.373 278.988 144.442 293.638C150.51 308.287 159.405 321.598 170.617 332.81C181.83 344.022 195.142 352.915 209.792 358.982C224.442 365.049 240.143 368.171 256 368.17C261.853 368.163 267.698 367.739 273.49 366.9C244.804 362.697 218.588 348.314 199.629 326.379C180.671 304.445 170.236 276.422 170.23 247.43V247.43Z" fill="#CCCCCC"/>
<path d="M316.09 223.66V200.52C316.09 199.086 315.808 197.666 315.259 196.341C314.71 195.016 313.906 193.812 312.892 192.798C311.878 191.784 310.674 190.98 309.349 190.431C308.024 189.882 306.604 189.6 305.17 189.6V189.6C303.735 189.599 302.314 189.88 300.988 190.428C299.662 190.977 298.457 191.781 297.442 192.795C296.427 193.809 295.622 195.013 295.072 196.339C294.523 197.664 294.24 199.085 294.24 200.52V223.66C294.24 225.095 294.523 226.517 295.072 227.843C295.621 229.169 296.426 230.374 297.441 231.389C298.456 232.404 299.661 233.209 300.987 233.758C302.313 234.307 303.735 234.59 305.17 234.59V234.59C306.605 234.59 308.026 234.307 309.351 233.758C310.677 233.208 311.881 232.403 312.895 231.388C313.909 230.373 314.713 229.168 315.262 227.842C315.81 226.516 316.091 225.095 316.09 223.66V223.66Z" fill="#393A59"/>
<path d="M195.89 200.52V223.66C195.89 225.095 196.173 226.517 196.722 227.843C197.271 229.169 198.076 230.374 199.091 231.389C200.106 232.404 201.311 233.209 202.637 233.758C203.963 234.307 205.385 234.59 206.82 234.59V234.59C208.255 234.59 209.677 234.307 211.003 233.758C212.329 233.209 213.534 232.404 214.549 231.389C215.564 230.374 216.369 229.169 216.918 227.843C217.467 226.517 217.75 225.095 217.75 223.66V200.52C217.75 197.621 216.598 194.841 214.549 192.791C212.499 190.742 209.719 189.59 206.82 189.59V189.59C203.922 189.593 201.143 190.745 199.094 192.794C197.045 194.843 195.893 197.622 195.89 200.52V200.52Z" fill="#393A59"/>
<path d="M308.95 211.72C312.893 211.72 316.09 208.523 316.09 204.58C316.09 200.637 312.893 197.44 308.95 197.44C305.007 197.44 301.81 200.637 301.81 204.58C301.81 208.523 305.007 211.72 308.95 211.72Z" fill="#7F7D89"/>
<path d="M210.61 211.72C214.553 211.72 217.75 208.523 217.75 204.58C217.75 200.637 214.553 197.44 210.61 197.44C206.667 197.44 203.47 200.637 203.47 204.58C203.47 208.523 206.667 211.72 210.61 211.72Z" fill="#7F7D89"/>
<path d="M300.97 225.65C303.24 225.65 305.08 223.81 305.08 221.54C305.08 219.27 303.24 217.43 300.97 217.43C298.7 217.43 296.86 219.27 296.86 221.54C296.86 223.81 298.7 225.65 300.97 225.65Z" fill="#7F7D89"/>
<path d="M202.64 225.64C204.904 225.64 206.74 223.804 206.74 221.54C206.74 219.276 204.904 217.44 202.64 217.44C200.376 217.44 198.54 219.276 198.54 221.54C198.54 223.804 200.376 225.64 202.64 225.64Z" fill="#7F7D89"/>
<path d="M162 128.8C162 130.067 162.05 131.317 162.15 132.55C163.31 147.32 157.97 161.95 146.77 171.65C143.254 174.695 139.406 177.335 135.3 179.52V145.05C135.264 123.24 141.172 101.833 152.39 83.13C159.058 90.5481 163.833 99.4681 166.31 109.13C163.462 115.296 161.991 122.008 162 128.8V128.8Z" fill="#282942"/>
<path d="M376.73 145.05V179.52C372.624 177.335 368.776 174.695 365.26 171.65C354.06 161.95 348.72 147.32 349.88 132.55C349.98 131.31 350.03 130.06 350.03 128.8C350.038 122.004 348.563 115.288 345.71 109.12C348.194 99.4589 352.973 90.5398 359.64 83.12C370.859 101.826 376.768 123.237 376.73 145.05V145.05Z" fill="#282942"/>
<path d="M188.692 168.542L178.893 193.884L223.066 210.964L232.864 185.622L188.692 168.542Z" fill="#EDEDED"/>
<path d="M323.31 168.532L279.138 185.613L288.937 210.954L333.109 193.874L323.31 168.532Z" fill="#EDEDED"/>
<path d="M313.11 257.67C312.911 272.69 306.805 287.027 296.114 297.578C285.423 308.128 271.006 314.044 255.985 314.044C240.964 314.044 226.548 308.128 215.856 297.578C205.165 287.027 199.059 272.69 198.86 257.67C216.597 266.54 236.155 271.157 255.985 271.157C275.816 271.157 295.374 266.54 313.11 257.67V257.67Z" fill="#393A59"/>
<path d="M288.42 304.69C278.887 311.273 267.576 314.8 255.99 314.8C244.405 314.8 233.093 311.273 223.56 304.69C233.095 298.112 244.406 294.589 255.99 294.589C267.574 294.589 278.885 298.112 288.42 304.69V304.69Z" fill="#BC93FF"/>
<path d="M323.31 169.9H188.67L226.44 198.22H230.6C234.095 198.22 237.448 199.609 239.92 202.08C242.391 204.552 243.78 207.904 243.78 211.4V231.84C243.741 235.092 244.974 238.23 247.216 240.585C249.457 242.941 252.53 244.328 255.78 244.45C257.403 244.481 259.016 244.187 260.525 243.588C262.033 242.988 263.407 242.093 264.566 240.957C265.725 239.82 266.646 238.464 267.275 236.967C267.904 235.47 268.229 233.863 268.23 232.24V211.4C268.23 207.906 269.617 204.555 272.087 202.084C274.556 199.612 277.906 198.223 281.4 198.22H285.56L323.31 169.9Z" fill="#CCCCCC"/>
<path d="M296.87 264.44C296.268 268.956 295.308 273.416 294 277.78C292.453 282.972 290.445 288.015 288 292.85L282.39 277.66L279.24 269C285.218 267.903 291.11 266.379 296.87 264.44V264.44Z" fill="#F0F0F0"/>
<path d="M232.74 269L229.55 277.63L223.94 292.82C221.518 287.993 219.53 282.96 218 277.78C216.678 273.417 215.705 268.957 215.09 264.44C220.857 266.381 226.755 267.905 232.74 269Z" fill="#F0F0F0"/>
<path d="M169.62 177.74L180 161.66C180.887 160.282 182.286 159.314 183.887 158.967C185.488 158.62 187.162 158.923 188.54 159.81L230.77 187C236.54 190.71 232.87 199.66 226.15 198.24L173.54 187.14C172.558 186.936 171.64 186.495 170.867 185.856C170.093 185.218 169.487 184.4 169.101 183.474C168.715 182.548 168.56 181.542 168.651 180.543C168.741 179.543 169.074 178.581 169.62 177.74V177.74Z" fill="#393A59"/>
<path d="M342.36 177.74L332 161.66C331.113 160.282 329.714 159.314 328.113 158.967C326.512 158.62 324.838 158.923 323.46 159.81L281.21 187C275.44 190.71 279.11 199.66 285.82 198.24L338.44 187.14C339.422 186.936 340.34 186.495 341.113 185.856C341.887 185.218 342.493 184.4 342.879 183.474C343.265 182.548 343.42 181.542 343.329 180.543C343.239 179.543 342.906 178.581 342.36 177.74Z" fill="#393A59"/>
<path d="M269.23 335.69H242.76C242.12 335.691 241.485 335.566 240.893 335.322C240.301 335.078 239.763 334.72 239.31 334.267C238.857 333.815 238.497 333.277 238.252 332.686C238.006 332.094 237.88 331.46 237.88 330.82V330.82C237.879 330.179 238.004 329.544 238.249 328.951C238.493 328.358 238.853 327.82 239.306 327.366C239.76 326.913 240.298 326.554 240.891 326.309C241.483 326.064 242.119 325.939 242.76 325.94H269.23C269.87 325.94 270.504 326.066 271.096 326.312C271.687 326.557 272.225 326.917 272.677 327.37C273.129 327.823 273.488 328.361 273.732 328.953C273.976 329.545 274.101 330.18 274.1 330.82C274.1 332.112 273.587 333.35 272.674 334.264C271.76 335.177 270.522 335.69 269.23 335.69Z" fill="#CCCCCC"/>
<path d="M359.64 83.13C346.8 61.6438 327.6 44.6789 304.696 34.5823C281.792 24.4856 256.316 21.7563 231.793 26.7718C207.27 31.7873 184.912 44.2998 167.811 62.5782C150.711 80.8567 139.713 103.998 136.34 128.8H162C162 116.335 166.952 104.38 175.766 95.566C184.58 86.7518 196.535 81.8 209 81.8C209.63 81.8 210.26 81.8 210.88 81.8C232.93 82.67 250.1 101.35 250.1 123.41V129.84C250.103 131.408 250.728 132.912 251.838 134.02C252.947 135.128 254.452 135.75 256.02 135.75V135.75C257.588 135.75 259.091 135.127 260.199 134.019C261.307 132.911 261.93 131.407 261.93 129.84V123.41C261.93 101.35 279.11 82.67 301.15 81.8C301.78 81.8 302.41 81.8 303.04 81.8C315.505 81.8 327.46 86.7518 336.274 95.566C345.088 104.38 350.04 116.335 350.04 128.8H375.65C373.486 112.644 368.038 97.1011 359.64 83.13V83.13Z" fill="#282942"/>
<path d="M256 448.64C256 448.64 78.7 319.93 85.07 308.34C94.59 291.03 108.72 279.22 122.68 271.21C108.4 287 94.7 311 115.78 332.1C118.909 335.283 122.722 337.711 126.93 339.2C140.87 344.04 153.84 351.32 164.52 361.5L256 448.64Z" fill="#282942"/>
<path d="M298.44 441.09L258.88 455.75C257.019 456.44 254.972 456.44 253.11 455.75L213.55 441.09C212.293 440.626 210.943 440.472 209.614 440.642C208.285 440.813 207.017 441.302 205.918 442.068C204.819 442.834 203.921 443.854 203.302 445.042C202.682 446.23 202.359 447.55 202.36 448.89V473.28C202.361 474.619 202.685 475.938 203.305 477.124C203.926 478.311 204.823 479.33 205.922 480.095C207.021 480.86 208.289 481.348 209.617 481.518C210.945 481.688 212.294 481.534 213.55 481.07L253.11 466.41C254.972 465.72 257.019 465.72 258.88 466.41L298.44 481.07C299.696 481.534 301.045 481.688 302.374 481.518C303.702 481.348 304.969 480.86 306.068 480.095C307.167 479.33 308.065 478.311 308.685 477.124C309.305 475.938 309.629 474.619 309.63 473.28V448.89C309.631 447.55 309.308 446.23 308.688 445.042C308.069 443.854 307.171 442.834 306.072 442.068C304.973 441.302 303.705 440.813 302.376 440.642C301.047 440.472 299.697 440.626 298.44 441.09V441.09Z" fill="#BC93FF"/>
<path d="M294 277.78C292.453 282.972 290.445 288.015 288 292.85L282.39 277.66C286.118 276.286 290.221 276.329 293.92 277.78H294Z" fill="#BC93FF"/>
<path d="M229.55 277.66L223.94 292.85C221.516 288.013 219.528 282.97 218 277.78C221.699 276.329 225.802 276.286 229.53 277.66H229.55Z" fill="#BC93FF"/>
</g>
<defs>
<clipPath id="clip0_307_3">
<rect width="512" height="512" fill="white"/>
</clipPath>
</defs>
</svg>
